<svg width="128" height="128" viewBox="0 0 128 128" fill="none" xmlns="http://www.w3.org/2000/svg">
<g clip-path="url(#clip0_2_2969)">
<path d="M116.266 42.0226L103.644 89.5262L89.1463 42.0226H83.2597L68.6767 89.3556L59.4839 52.9035H53.0517L65.5268 98.649H71.3215L86.0751 51.1531L100.657 98.649H106.459L122.83 42.0226H116.266ZM42.5141 47.4587V61.1473H48.6576V47.4587H42.5141ZM48.6576 67.0929V98.649H42.5141V72.5564H10.4561V98.649H4.31152V42.0258H10.4528V72.5411H10.4561V67.0962L48.6576 67.0929Z" fill="url(#paint0_linear_2_2969)"/>
<path d="M42.4942 42.0193H28.8066V47.4608H42.4942V42.0193Z" fill="#DF3050"/>
<path d="M62.3234 42.0226H48.6348V47.4587H62.3234V42.0226Z" fill="#DF3050"/>
<path d="M48.6359 28.3317H42.4946V42.0193H48.6359V28.3317Z" fill="#DF3050"/>
<path d="M48.6347 47.4586H42.4912V61.1462H48.6347V47.4586Z" fill="#DF3050"/>
</g>
<defs>
<linearGradient id="paint0_linear_2_2969" x1="4.31152" y1="70.3358" x2="122.83" y2="70.3358" gradientUnits="userSpaceOnUse">
<stop offset="0.35" stop-color="#183861"/>
<stop offset="1" stop-color="#1778F2"/>
</linearGradient>
<clipPath id="clip0_2_2969">
<rect width="118.519" height="70.3173" fill="white" transform="translate(4.31152 28.3317)"/>
</clipPath>
</defs>
</svg>
